<?xml version="1.0" standalone="no"?>
<!DOCTYPE svg PUBLIC "-//W3C//DTD SVG 20010904//EN"
 "http://www.w3.org/TR/2001/REC-SVG-20010904/DTD/svg10.dtd">
<svg version="1.0" xmlns="http://www.w3.org/2000/svg"
 width="559.000000pt" height="558.000000pt" viewBox="0 0 559.000000 558.000000"
 preserveAspectRatio="xMidYMid meet">

<g transform="translate(0.000000,558.000000) scale(0.100000,-0.100000)"
fill="#000000" stroke="none">
<path d="M3225 4440 c-11 -5 -63 -9 -115 -9 -52 -1 -133 -8 -180 -16 -47 -8
-112 -15 -145 -15 -70 -1 -88 -9 -140 -68 -21 -24 -54 -51 -74 -60 -27 -13
-38 -28 -50 -63 -21 -61 -31 -72 -107 -114 -35 -20 -72 -47 -81 -62 -10 -14
-35 -44 -55 -68 -21 -23 -38 -48 -38 -54 0 -7 -12 -32 -26 -56 -22 -39 -24
-48 -15 -82 18 -65 13 -133 -15 -193 -21 -45 -24 -63 -19 -103 10 -73 18 -72
165 10 30 17 90 45 132 62 43 17 86 35 95 40 46 26 340 112 468 137 222 45
425 63 650 58 239 -4 404 -24 620 -71 199 -45 219 -46 223 -14 2 13 0 21 -5
18 -4 -3 -42 4 -83 15 -133 34 -302 67 -407 80 -57 6 -103 15 -103 20 0 4 -10
8 -22 9 l-23 0 22 11 c21 10 21 16 20 147 -1 153 -8 172 -56 154 -21 -8 -28
-7 -28 3 0 7 3 13 6 12 3 0 15 0 26 1 17 1 18 3 5 11 -10 7 0 8 35 5 l50 -5
-60 14 c-227 52 -257 58 -266 49 -5 -5 -13 -27 -16 -49 -10 -66 -41 -71 -104
-18 -50 42 -117 77 -177 93 -46 13 -62 43 -43 79 16 31 13 67 -7 85 -21 19
-28 20 -57 7z m565 -236 c0 -2 -7 -4 -15 -4 -8 0 -15 4 -15 10 0 5 7 7 15 4 8
-4 15 -8 15 -10z m47 -20 c-3 -3 -12 -4 -19 -1 -8 3 -5 6 6 6 11 1 17 -2 13
-5z"/>
<path d="M4018 4203 c6 -2 18 -2 25 0 6 3 1 5 -13 5 -14 0 -19 -2 -12 -5z"/>
<path d="M3968 4193 c6 -2 18 -2 25 0 6 3 1 5 -13 5 -14 0 -19 -2 -12 -5z"/>
<path d="M4160 4079 c0 -5 5 -7 10 -4 6 3 10 8 10 11 0 2 -4 4 -10 4 -5 0 -10
-5 -10 -11z"/>
<path d="M4170 3956 c0 -2 8 -10 18 -17 15 -13 16 -12 3 4 -13 16 -21 21 -21
13z"/>
<path d="M4157 3540 c-303 -29 -627 -112 -902 -232 -109 -47 -335 -169 -335
-180 0 -4 13 -8 30 -8 19 0 42 -11 66 -32 33 -29 46 -34 108 -38 63 -5 72 -8
85 -32 14 -24 13 -33 -7 -105 -28 -96 -21 -125 43 -177 35 -29 45 -44 50 -78
4 -24 15 -58 26 -76 10 -18 19 -51 19 -72 0 -23 11 -59 25 -87 30 -56 27 -82
-16 -131 -40 -46 -49 -72 -49 -147 0 -66 5 -75 65 -110 18 -11 29 -54 46 -175
14 -104 25 -136 70 -205 53 -83 69 -126 69 -183 0 -101 39 -144 99 -109 15 8
56 19 91 23 36 3 79 13 95 22 61 30 126 85 146 123 11 23 37 50 62 65 55 34
67 51 67 93 0 29 8 43 53 83 l52 49 0 80 c0 77 1 82 28 101 15 11 34 33 42 49
9 16 33 38 54 48 53 28 88 72 107 138 15 52 15 64 -1 167 -10 61 -21 124 -26
140 -15 49 -10 76 27 147 36 68 47 79 59 59 12 -20 34 -9 40 20 l7 30 17 -21
17 -21 26 31 c31 36 68 129 68 169 0 70 -56 94 -148 63 -90 -31 -124 -28 -171
14 -21 19 -44 35 -50 35 -19 0 -12 19 15 36 35 24 68 20 147 -16 125 -57 193
-48 265 35 44 50 42 82 -9 141 -36 42 -39 48 -25 62 19 19 65 18 105 -3 29
-15 31 -15 31 4 0 22 -71 119 -129 176 l-41 39 -213 2 c-116 1 -251 -1 -300
-6z"/>
<path d="M1120 2420 l0 -380 70 0 70 0 0 380 0 380 -70 0 -70 0 0 -380z"/>
<path d="M1534 2549 c-108 -22 -174 -121 -174 -261 0 -92 18 -145 64 -193 47
-49 91 -65 183 -65 59 0 147 21 167 41 10 9 -19 95 -34 104 -5 3 -26 -4 -47
-15 -57 -30 -118 -27 -154 9 -17 17 -29 40 -29 55 l0 26 146 0 147 0 -5 85
c-7 106 -36 170 -89 197 -38 19 -124 28 -175 17z m86 -109 c16 -9 40 -64 40
-92 0 -5 -34 -8 -75 -8 -65 0 -75 2 -75 18 1 27 25 63 51 78 29 16 35 17 59 4z"/>
<path d="M2508 2550 c-26 -3 -55 -13 -66 -23 -23 -21 -32 -22 -32 -3 0 9 -18
15 -57 19 -32 2 -61 3 -65 0 -5 -2 -8 -116 -8 -254 l0 -249 70 0 70 0 0 165
c0 205 11 235 85 235 48 0 55 -29 55 -222 l0 -178 70 0 70 0 0 203 c0 173 -3
207 -18 236 -32 65 -78 84 -174 71z"/>
<path d="M1900 2296 l0 -256 65 0 65 0 0 154 c0 139 2 156 20 179 27 34 82 52
110 37 12 -6 24 -9 27 -7 9 9 33 129 27 138 -3 5 -29 9 -58 9 -40 0 -62 -6
-90 -25 -44 -30 -46 -30 -46 -5 0 17 -7 20 -44 20 -24 0 -51 3 -60 6 -14 6
-16 -21 -16 -250z"/>
<path d="M4880 2224 c-7 -17 -15 -24 -25 -20 -8 3 -21 -1 -29 -9 -8 -8 -22
-15 -32 -15 -10 0 -25 -7 -35 -16 -15 -13 -23 -14 -52 -3 -30 11 -39 10 -60
-4 -14 -9 -31 -33 -38 -54 -19 -57 -50 -101 -86 -118 -51 -24 -94 -160 -61
-193 7 -7 32 -12 58 -12 l45 0 140 145 c77 81 149 148 160 150 11 2 23 4 27 4
10 1 28 70 28 108 0 63 -23 84 -40 37z"/>
</g>
</svg>
